<svg width="120" height="125" viewBox="0 0 120 125" fill="none" xmlns="http://www.w3.org/2000/svg">
<path d="M82.5 0C74.85 0 68.25 5.43704 64.2 13.6703C70.95 22.0588 75 33.5543 75 46.7585C75 51.2635 74.55 55.3025 73.65 59.3414C76.5 61.0502 79.35 62.2929 82.5 62.2929C94.95 62.2929 105 48.312 105 31.2241C105 14.1363 94.95 0.155344 82.5 0.155344V0ZM37.5 15.5344C25.05 15.5344 15 29.5154 15 46.6032C15 63.691 25.05 77.672 37.5 77.672C49.95 77.672 60 63.691 60 46.6032C60 29.5154 49.95 15.5344 37.5 15.5344ZM108.75 64.6231C102.3 72.5456 93.45 77.3613 83.4 77.672C87.45 83.5751 90 90.7209 90 98.4881V108.741H120V82.9537C120 74.8758 115.35 67.8853 108.75 64.4677V64.6231ZM11.25 80.1575C4.65 83.5751 0 90.5655 0 98.6434V124.431H75V98.6434C75 90.5655 70.35 83.5751 63.75 80.1575C57 88.3907 47.85 93.2064 37.5 93.2064C27.15 93.2064 18 88.2354 11.25 80.1575Z" fill="#852133"/>
</svg>
