<svg width="118" height="123" viewBox="0 0 118 123" fill="none" xmlns="http://www.w3.org/2000/svg">
<path d="M51.625 0C37.3175 0 24.485 6.1102 15.1925 15.7338L59 61.102V0.458265C56.64 0.152755 54.1325 0 51.625 0ZM73.75 16.192V68.2814L33.63 109.831C42.6275 117.469 53.8375 122.204 66.375 122.204C94.8425 122.204 118 98.2214 118 68.7397C118 41.8548 98.6775 20.0109 73.75 16.192ZM13.4225 36.2029C5.1625 44.4517 0 55.9083 0 68.7397C0 83.4042 6.785 96.0828 17.11 104.484L48.5275 71.9476L13.4225 36.2029Z" fill="#852133"/>
</svg>
