<svg width="94" height="94" viewBox="0 0 94 94" fill="none" xmlns="http://www.w3.org/2000/svg">
<path d="M47 0C21.0325 0 0 21.0325 0 47C0 72.9675 21.0325 94 47 94C72.9675 94 94 72.9675 94 47C94 21.0325 72.9675 0 47 0ZM47 11.75C50.8775 11.75 54.52 12.8075 58.045 13.9825C55.5775 16.3325 52.7575 18.4475 53.2275 20.5625C53.6975 22.6775 61.335 22.09 61.335 26.4375C61.335 29.61 56.4 30.55 59.8075 34.1925C63.92 38.305 52.2875 45.7075 52.0525 51.1125C51.7 60.865 61.9225 62.51 70.03 62.51C74.965 62.51 76.2575 64.86 75.905 67.68C69.56 76.7275 58.75 82.3675 46.8825 82.3675C42.4175 82.3675 38.305 81.31 34.4275 79.7825C37.0125 74.6125 31.1375 64.39 25.615 61.1C22.9125 58.3975 17.155 59.455 13.865 58.1625C12.8075 54.99 11.75 51.8175 11.6325 48.2925C11.985 47.705 12.5725 47.235 13.5125 47.235C15.745 47.235 18.8 51.7 20.445 51.23C22.56 50.76 11.75 35.8375 16.8025 32.9C19.1525 31.49 23.8525 37.4825 22.325 31.02C20.915 25.0275 26.555 27.73 30.08 26.2025C33.135 24.91 35.3675 21.385 31.6075 19.27C30.9025 18.9175 30.08 18.095 29.0225 17.0375C34.31 13.865 40.42 11.8675 47 11.8675V11.75ZM74.1425 24.5575C76.2575 27.1425 77.9025 29.9625 79.3125 33.0175V33.37C78.8425 34.1925 78.02 34.6625 76.7275 35.955C73.4375 39.245 72.9675 33.4875 71.5575 32.3125C70.03 30.9025 64.5075 32.5475 63.8025 30.785C62.98 28.67 69.6775 25.85 74.1425 24.5575Z" fill="#F7C301"/>
</svg>
