<svg width="68" height="108" viewBox="0 0 68 108" fill="none" xmlns="http://www.w3.org/2000/svg">
<path d="M2.5618 0C1.07865 0 0 1.07865 0 2.5618V105.438C0 106.921 1.07865 108 2.5618 108H64.9888C66.4719 108 67.5506 106.921 67.5506 105.438V2.5618C67.5506 1.07865 66.4719 0 64.9888 0L2.5618 0ZM13.4831 13.4831H53.9326V80.8989H13.4831V13.4831ZM33.7079 87.6404C37.4831 87.6404 40.4494 90.6067 40.4494 94.382C40.4494 98.1573 37.4831 101.124 33.7079 101.124C29.9326 101.124 26.9663 98.1573 26.9663 94.382C26.9663 90.6067 29.9326 87.6404 33.7079 87.6404Z" fill="#F7C301"/>
</svg>
