<svg width="94" height="79" viewBox="0 0 94 79" fill="none" xmlns="http://www.w3.org/2000/svg">
<path d="M89.0052 5.03318C89.0052 5.03318 81.2996 9.58544 77.0147 10.8757C74.7147 8.23134 71.6582 6.35707 68.2585 5.50638C64.8587 4.65574 61.2799 4.8697 58.0058 6.11939C54.7316 7.36909 51.92 9.59418 49.9518 12.4937C47.9833 15.3933 46.953 18.8274 47 22.3317V26.1504C40.2891 26.3243 33.6395 24.836 27.6433 21.8179C21.6469 18.7997 16.4901 14.3455 12.6321 8.85183C12.6321 8.85183 -2.64255 43.2199 31.7254 58.4945C23.861 63.8326 14.4924 66.5095 4.99476 66.1319C39.3627 85.2251 81.3679 66.1319 81.3679 22.2171C81.3645 21.1534 81.2621 20.0924 81.0624 19.0476C84.9597 15.2041 89.0052 5.03318 89.0052 5.03318Z" stroke="#78081C" stroke-width="4.99392" stroke-linecap="round" stroke-linejoin="round"/>
</svg>
