<svg width="67" height="72" viewBox="0 0 67 72" fill="none" xmlns="http://www.w3.org/2000/svg">
<path d="M63.7342 3.05894C63.7342 3.05894 58.1655 7.44075 55.0689 8.68272C53.4068 6.13736 51.1979 4.33326 48.741 3.51443C46.2841 2.69564 43.6978 2.90159 41.3317 4.10449C38.9655 5.30739 36.9336 7.44917 35.5113 10.2401C34.0887 13.0312 33.3441 16.3367 33.3781 19.7097V23.3854C28.5283 23.5529 23.7228 22.1203 19.3895 19.2151C15.0561 16.31 11.3294 12.0226 8.54126 6.73462C8.54126 6.73462 -2.49732 39.8158 22.3395 54.5185C16.6561 59.6567 9.88565 62.2334 3.02197 61.8699C27.8588 80.2482 58.2149 61.8699 58.2149 19.5995C58.2124 18.5756 58.1385 17.5543 57.9941 16.5487C60.8106 12.8491 63.7342 3.05894 63.7342 3.05894Z" stroke="#78081C" stroke-width="3" stroke-linecap="round" stroke-linejoin="round"/>
</svg>
