<svg width="67" height="77" viewBox="0 0 67 77" fill="none" xmlns="http://www.w3.org/2000/svg">
<path d="M63.9251 3.07079C63.9251 3.07079 58.3397 7.78359 55.2339 9.11939C53.5667 6.38174 51.3513 4.44137 48.887 3.56069C46.4228 2.68004 43.8287 2.90155 41.4555 4.19531C39.0823 5.48908 37.0442 7.79265 35.6177 10.7945C34.1908 13.7963 33.444 17.3515 33.4781 20.9794V24.9327C28.6137 25.1128 23.7939 23.572 19.4475 20.4474C15.1012 17.3228 11.3633 12.7115 8.56685 7.02412C8.56685 7.02412 -2.5048 42.6043 22.4064 58.4176C16.706 63.9439 9.91526 66.7152 3.03102 66.3242C27.9422 86.0909 58.3893 66.3242 58.3893 20.8608C58.3868 19.7596 58.3126 18.6611 58.1678 17.5795C60.9928 13.6004 63.9251 3.07079 63.9251 3.07079Z" stroke="#78081C" stroke-width="3" stroke-linecap="round" stroke-linejoin="round"/>
</svg>
