<svg width="67" height="72" viewBox="0 0 67 72" fill="none" xmlns="http://www.w3.org/2000/svg">
<path d="M63.7346 3.05896C63.7346 3.05896 58.1659 7.4408 55.0693 8.68278C53.4071 6.1374 51.1983 4.33329 48.7414 3.51446C46.2844 2.69566 43.6981 2.90161 41.3319 4.10452C38.9658 5.30743 36.9339 7.44922 35.5115 10.2402C34.0889 13.0312 33.3444 16.3368 33.3783 19.7099V23.3856C28.5285 23.553 23.723 22.1204 19.3896 19.2153C15.0562 16.3101 11.3295 12.0226 8.54132 6.73466C8.54132 6.73466 -2.49734 39.8161 22.3396 54.5189C16.6562 59.6571 9.88572 62.2338 3.02199 61.8703C27.859 80.2488 58.2153 61.8703 58.2153 19.5996C58.2128 18.5757 58.1389 17.5544 57.9945 16.5488C60.811 12.8492 63.7346 3.05896 63.7346 3.05896Z" stroke="#78081C" stroke-width="3" stroke-linecap="round" stroke-linejoin="round"/>
</svg>
