<svg width="105" height="105" viewBox="0 0 105 105" fill="none" xmlns="http://www.w3.org/2000/svg">
<path fill-rule="evenodd" clip-rule="evenodd" d="M52.5 105C59.3944 105 66.2213 103.642 72.5909 101.004C78.9605 98.3653 84.748 94.4982 89.6231 89.6231C94.4982 84.748 98.3653 78.9605 101.004 72.5909C103.642 66.2213 105 59.3944 105 52.5C105 45.6056 103.642 38.7787 101.004 32.4091C98.3653 26.0395 94.4982 20.252 89.6231 15.3769C84.748 10.5018 78.9605 6.6347 72.5909 3.99632C66.2213 1.35795 59.3944 -1.02735e-07 52.5 0C38.5761 2.07482e-07 25.2226 5.53123 15.3769 15.3769C5.53123 25.2226 0 38.5761 0 52.5C0 66.4239 5.53123 79.7774 15.3769 89.6231C25.2226 99.4688 38.5761 105 52.5 105ZM51.1467 73.7333L80.3133 38.7333L71.3533 31.2667L46.27 61.3608L33.2908 48.3758L25.0425 56.6242L42.5425 74.1242L47.0575 78.6392L51.1467 73.7333Z" fill="#78081C"/>
</svg>
