<svg width="67" height="98" viewBox="0 0 67 98" fill="none" xmlns="http://www.w3.org/2000/svg">
<path d="M63.85 3.07974C63.85 3.07974 58.2712 9.18815 55.169 10.9195C53.5038 7.37117 51.291 4.85619 48.8296 3.71471C46.3682 2.57328 43.7772 2.86038 41.4068 4.53727C39.0363 6.21416 37.0007 9.19988 35.5758 13.0906C34.1506 16.9814 33.4047 21.5894 33.4387 26.2916V31.4156C28.5801 31.6491 23.7659 29.652 19.4247 25.6021C15.0834 21.5522 11.35 15.5754 8.55678 8.20377C8.55678 8.20377 -2.50186 54.3202 22.3801 74.8163C16.6864 81.9792 9.90361 85.5712 3.02746 85.0644C27.9094 110.685 58.3207 85.0644 58.3207 26.1379C58.3182 24.7106 58.2441 23.2868 58.0995 21.8849C60.9211 16.7275 63.85 3.07974 63.85 3.07974Z" stroke="#78081C" stroke-width="3" stroke-linecap="round" stroke-linejoin="round"/>
</svg>
