<svg width="368" height="368" viewBox="0 0 368 368" fill="none" xmlns="http://www.w3.org/2000/svg">
<path d="M115 23H23V115H115V23ZM138 0V138H0V0H138ZM46 46H92V92H46V46ZM345 23H253V115H345V23ZM368 0V138H230V0H368ZM276 46H322V92H276V46ZM115 253H23V345H115V253ZM138 230V368H0V230H138ZM46 276H92V322H46V276ZM161 0H184V23H161V0ZM184 23H207V46H184V23ZM161 46H184V69H161V46ZM184 69H207V92H184V69ZM161 92H184V115H161V92ZM184 115H207V138H184V115ZM161 138H184V161H161V138ZM161 184H184V207H161V184ZM184 207H207V230H184V207ZM161 230H184V253H161V230ZM184 253H207V276H184V253ZM161 276H184V299H161V276ZM184 299H207V322H184V299ZM161 322H184V345H161V322ZM184 345H207V368H184V345ZM345 184H368V207H345V184ZM23 184H46V207H23V184ZM46 161H69V184H46V161ZM0 161H23V184H0V161ZM92 161H115V184H92V161ZM115 184H138V207H115V184ZM138 161H161V184H138V161ZM207 184H230V207H207V184ZM230 161H253V184H230V161ZM253 184H276V207H253V184ZM276 161H299V184H276V161ZM299 184H322V207H299V184ZM322 161H345V184H322V161ZM345 230H368V253H345V230ZM207 230H230V253H207V230ZM230 207H253V230H230V207ZM253 230H276V253H253V230ZM299 230H322V253H299V230ZM322 207H345V230H322V207ZM345 276H368V299H345V276ZM207 276H230V299H207V276ZM230 253H253V276H230V253ZM276 253H299V276H276V253ZM299 276H322V299H299V276ZM322 253H345V276H322V253ZM345 322H368V345H345V322ZM230 299H253V322H230V299ZM253 322H276V345H253V322ZM276 299H299V322H276V299ZM299 322H322V345H299V322ZM230 345H253V368H230V345ZM276 345H299V368H276V345ZM322 345H345V368H322V345Z" fill="black"/>
</svg>
