<svg width="184" height="184" viewBox="0 0 184 184" fill="none" xmlns="http://www.w3.org/2000/svg">
<path d="M57.5 11.5H11.5V57.5H57.5V11.5ZM69 0V69H0V0H69ZM23 23H46V46H23V23ZM172.5 11.5H126.5V57.5H172.5V11.5ZM184 0V69H115V0H184ZM138 23H161V46H138V23ZM57.5 126.5H11.5V172.5H57.5V126.5ZM69 115V184H0V115H69ZM23 138H46V161H23V138ZM80.5 0H92V11.5H80.5V0ZM92 11.5H103.5V23H92V11.5ZM80.5 23H92V34.5H80.5V23ZM92 34.5H103.5V46H92V34.5ZM80.5 46H92V57.5H80.5V46ZM92 57.5H103.5V69H92V57.5ZM80.5 69H92V80.5H80.5V69ZM80.5 92H92V103.5H80.5V92ZM92 103.5H103.5V115H92V103.5ZM80.5 115H92V126.5H80.5V115ZM92 126.5H103.5V138H92V126.5ZM80.5 138H92V149.5H80.5V138ZM92 149.5H103.5V161H92V149.5ZM80.5 161H92V172.5H80.5V161ZM92 172.5H103.5V184H92V172.5ZM172.5 92H184V103.5H172.5V92ZM11.5 92H23V103.5H11.5V92ZM23 80.5H34.5V92H23V80.5ZM0 80.5H11.5V92H0V80.5ZM46 80.5H57.5V92H46V80.5ZM57.5 92H69V103.5H57.5V92ZM69 80.5H80.5V92H69V80.5ZM103.5 92H115V103.5H103.5V92ZM115 80.5H126.5V92H115V80.5ZM126.5 92H138V103.5H126.5V92ZM138 80.5H149.5V92H138V80.5ZM149.5 92H161V103.5H149.5V92ZM161 80.5H172.5V92H161V80.5ZM172.5 115H184V126.5H172.5V115ZM103.5 115H115V126.5H103.5V115ZM115 103.5H126.5V115H115V103.5ZM126.5 115H138V126.5H126.5V115ZM149.5 115H161V126.5H149.5V115ZM161 103.5H172.5V115H161V103.5ZM172.5 138H184V149.5H172.5V138ZM103.5 138H115V149.5H103.5V138ZM115 126.5H126.5V138H115V126.5ZM138 126.5H149.5V138H138V126.5ZM149.5 138H161V149.5H149.5V138ZM161 126.5H172.5V138H161V126.5ZM172.5 161H184V172.5H172.5V161ZM115 149.5H126.5V161H115V149.5ZM126.5 161H138V172.5H126.5V161ZM138 149.5H149.5V161H138V149.5ZM149.5 161H161V172.5H149.5V161ZM115 172.5H126.5V184H115V172.5ZM138 172.5H149.5V184H138V172.5ZM161 172.5H172.5V184H161V172.5Z" fill="black"/>
</svg>
