<svg width="34" height="49" viewBox="0 0 34 49" fill="none" xmlns="http://www.w3.org/2000/svg">
<path d="M31.925 1.53987C31.925 1.53987 29.1356 4.59407 27.5845 5.45975C26.7519 3.68558 25.6455 2.4281 24.4148 1.85736C23.1841 1.28664 21.8886 1.43019 20.7034 2.26864C19.5182 3.10708 18.5004 4.59994 17.7879 6.5453C17.0753 8.49069 16.7024 10.7947 16.7194 13.1458V15.7078C14.2901 15.8245 11.883 14.826 9.71235 12.8011C7.54171 10.7761 5.67499 7.78768 4.27839 4.10189C4.27839 4.10189 -1.25093 27.1601 11.19 37.4082C8.34318 40.9896 4.95181 42.7856 1.51373 42.5322C13.9547 55.3423 29.1603 42.5322 29.1603 13.0689C29.1591 12.3553 29.122 11.6434 29.0498 10.9425C30.4606 8.36377 31.925 1.53987 31.925 1.53987Z" stroke="#78081C" stroke-width="3" stroke-linecap="round" stroke-linejoin="round"/>
</svg>
