<svg width="34" height="41" viewBox="0 0 34 41" fill="none" xmlns="http://www.w3.org/2000/svg">
<path d="M31.6444 1.52185C31.6444 1.52185 28.8795 4.04636 27.342 4.7619C26.5167 3.29543 25.4201 2.25603 24.2002 1.78427C22.9803 1.31254 21.6962 1.43119 20.5214 2.12422C19.3466 2.81725 18.3377 4.0512 17.6315 5.65918C16.9252 7.26718 16.5555 9.17161 16.5724 11.1149V13.2326C14.1644 13.3291 11.7785 12.5037 9.62697 10.83C7.47542 9.15623 5.6251 6.68608 4.24078 3.63953C4.24078 3.63953 -1.23993 22.6987 11.0917 31.1694C8.26984 34.1297 4.90828 35.6142 1.50042 35.4048C13.832 45.9932 28.904 35.4048 28.904 11.0514C28.9028 10.4615 28.8661 9.87311 28.7944 9.29373C30.1928 7.16227 31.6444 1.52185 31.6444 1.52185Z" stroke="#78081C" stroke-width="3" stroke-linecap="round" stroke-linejoin="round"/>
</svg>
